<svg xmlns="http://www.w3.org/2000/svg" width="800" height="450" viewBox="0 0 800 450" role="img" aria-label="Sim 3 thumbnail">
  <defs>
    <linearGradient id="bg" x1="0" y1="0" x2="1" y2="1">
      <stop offset="0" stop-color="#0b1220" />
      <stop offset="1" stop-color="#111827" />
    </linearGradient>
  </defs>
  <rect x="0" y="0" width="800" height="450" rx="28" fill="url(#bg)" />
  <rect x="42" y="46" width="716" height="358" rx="20" fill="#020617" stroke="#334155" stroke-width="2" />
  <text x="80" y="140" fill="#e2e8f0" font-size="56" font-family="system-ui,-apple-system,Segoe UI,Roboto,Ubuntu,Cantarell,Noto Sans,sans-serif" font-weight="800">Sim 3</text>
  <text x="80" y="200" fill="#38bdf8" font-size="34" font-family="system-ui,-apple-system,Segoe UI,Roboto,Ubuntu,Cantarell,Noto Sans,sans-serif" font-weight="700">Neural Vision GA</text>
  <text x="80" y="258" fill="#94a3b8" font-size="22" font-family="system-ui,-apple-system,Segoe UI,Roboto,Ubuntu,Cantarell,Noto Sans,sans-serif">Trails • live activations • selection</text>

  <!-- small stylized neural net -->
  <g transform="translate(510 145)" opacity="0.95">
    <g fill="#94a3b8">
      <circle cx="0" cy="28" r="7"/>
      <circle cx="0" cy="78" r="7"/>
      <circle cx="0" cy="128" r="7"/>
      <circle cx="86" cy="52" r="8" fill="#e2e8f0"/>
      <circle cx="86" cy="104" r="8" fill="#e2e8f0"/>
      <circle cx="176" cy="78" r="9" fill="#facc15"/>
    </g>
    <g stroke="#38bdf8" stroke-width="3" opacity="0.75">
      <line x1="0" y1="28" x2="86" y2="52"/>
      <line x1="0" y1="28" x2="86" y2="104"/>
      <line x1="0" y1="78" x2="86" y2="52"/>
      <line x1="0" y1="78" x2="86" y2="104"/>
      <line x1="0" y1="128" x2="86" y2="52"/>
      <line x1="0" y1="128" x2="86" y2="104"/>
      <line x1="86" y1="52" x2="176" y2="78"/>
      <line x1="86" y1="104" x2="176" y2="78"/>
    </g>
  </g>
</svg>
